<mxfile host="Electron" agent="Mozilla/5.0 (Windows NT 10.0; Win64; x64) AppleWebKit/537.36 (KHTML, like Gecko) draw.io/27.0.5 Chrome/134.0.6998.205 Electron/35.3.0 Safari/537.36" version="27.0.5">
  <diagram name="Seite-1" id="aQpEhQXTwdNTCFLxbJN_">
    <mxGraphModel dx="1042" dy="626" grid="1" gridSize="10" guides="1" tooltips="1" connect="1" arrows="1" fold="1" page="1" pageScale="1" pageWidth="827" pageHeight="1169" math="0" shadow="0">
      <root>
        <mxCell id="0" />
        <mxCell id="1" parent="0" />
        <mxCell id="WompmNfc8i8KG4VRtd54-9" value="PSFT" style="shape=parallelogram;perimeter=parallelogramPerimeter;whiteSpace=wrap;html=1;fixedSize=1;" parent="1" vertex="1">
          <mxGeometry x="680" y="555" width="120" height="60" as="geometry" />
        </mxCell>
        <mxCell id="WompmNfc8i8KG4VRtd54-27" style="edgeStyle=orthogonalEdgeStyle;rounded=0;orthogonalLoop=1;jettySize=auto;html=1;entryX=0;entryY=0.5;entryDx=0;entryDy=0;" parent="1" source="WompmNfc8i8KG4VRtd54-10" target="WompmNfc8i8KG4VRtd54-9" edge="1">
          <mxGeometry relative="1" as="geometry" />
        </mxCell>
        <mxCell id="WompmNfc8i8KG4VRtd54-10" value="Create PSFT" style="shape=step;perimeter=stepPerimeter;whiteSpace=wrap;html=1;fixedSize=1;" parent="1" vertex="1">
          <mxGeometry x="490" y="545" width="120" height="80" as="geometry" />
        </mxCell>
        <mxCell id="WompmNfc8i8KG4VRtd54-14" value="" style="edgeStyle=orthogonalEdgeStyle;rounded=0;orthogonalLoop=1;jettySize=auto;html=1;" parent="1" source="WompmNfc8i8KG4VRtd54-16" target="WompmNfc8i8KG4VRtd54-17" edge="1">
          <mxGeometry relative="1" as="geometry" />
        </mxCell>
        <mxCell id="WompmNfc8i8KG4VRtd54-16" value="&lt;b&gt;Employee Absence&lt;br&gt;&lt;/b&gt;Namespace: Microsoft.HumanResources.Absence" style="shape=parallelogram;perimeter=parallelogramPerimeter;whiteSpace=wrap;html=1;fixedSize=1;" parent="1" vertex="1">
          <mxGeometry x="10" y="555" width="240" height="60" as="geometry" />
        </mxCell>
        <mxCell id="WompmNfc8i8KG4VRtd54-17" value="&lt;b&gt;Cause of Absence&lt;/b&gt;&lt;div&gt;Namespace: Microsoft.HumanResources.Absence&lt;/div&gt;" style="shape=parallelogram;perimeter=parallelogramPerimeter;whiteSpace=wrap;html=1;fixedSize=1;" parent="1" vertex="1">
          <mxGeometry x="10" y="680" width="240" height="60" as="geometry" />
        </mxCell>
        <mxCell id="WompmNfc8i8KG4VRtd54-18" value="&lt;div style=&quot;text-align: left;&quot;&gt;&lt;br&gt;&lt;/div&gt;" style="endArrow=classic;html=1;rounded=0;exitX=1;exitY=0.5;exitDx=0;exitDy=0;entryX=0;entryY=0.5;entryDx=0;entryDy=0;" parent="1" source="WompmNfc8i8KG4VRtd54-16" target="WompmNfc8i8KG4VRtd54-10" edge="1">
          <mxGeometry width="50" height="50" relative="1" as="geometry">
            <mxPoint x="330" y="610" as="sourcePoint" />
            <mxPoint x="510" y="590" as="targetPoint" />
          </mxGeometry>
        </mxCell>
        <mxCell id="WompmNfc8i8KG4VRtd54-19" value="" style="edgeStyle=orthogonalEdgeStyle;rounded=0;orthogonalLoop=1;jettySize=auto;html=1;entryX=0.25;entryY=0;entryDx=0;entryDy=0;" parent="1" source="WompmNfc8i8KG4VRtd54-20" target="WompmNfc8i8KG4VRtd54-10" edge="1">
          <mxGeometry x="0.0526" relative="1" as="geometry">
            <mxPoint x="550" y="550" as="targetPoint" />
            <mxPoint as="offset" />
          </mxGeometry>
        </mxCell>
        <mxCell id="WompmNfc8i8KG4VRtd54-20" value="Dim Abteilung" style="shape=parallelogram;perimeter=parallelogramPerimeter;whiteSpace=wrap;html=1;fixedSize=1;" parent="1" vertex="1">
          <mxGeometry x="270" y="400" width="120" height="60" as="geometry" />
        </mxCell>
        <mxCell id="WompmNfc8i8KG4VRtd54-21" value="" style="edgeStyle=orthogonalEdgeStyle;rounded=0;orthogonalLoop=1;jettySize=auto;html=1;entryX=0.25;entryY=1;entryDx=0;entryDy=0;" parent="1" target="WompmNfc8i8KG4VRtd54-10" edge="1">
          <mxGeometry relative="1" as="geometry">
            <mxPoint x="550" y="630" as="targetPoint" />
            <mxPoint x="380" y="770" as="sourcePoint" />
          </mxGeometry>
        </mxCell>
        <mxCell id="WompmNfc8i8KG4VRtd54-24" value="" style="edgeStyle=orthogonalEdgeStyle;rounded=0;orthogonalLoop=1;jettySize=auto;html=1;entryX=0.75;entryY=1;entryDx=0;entryDy=0;" parent="1" source="WompmNfc8i8KG4VRtd54-23" target="WompmNfc8i8KG4VRtd54-10" edge="1">
          <mxGeometry relative="1" as="geometry" />
        </mxCell>
        <mxCell id="WompmNfc8i8KG4VRtd54-23" value="Dim Zeitraum" style="shape=parallelogram;perimeter=parallelogramPerimeter;whiteSpace=wrap;html=1;fixedSize=1;" parent="1" vertex="1">
          <mxGeometry x="270" y="840" width="120" height="60" as="geometry" />
        </mxCell>
        <mxCell id="WompmNfc8i8KG4VRtd54-26" value="Dim Zeitpunkt" style="shape=parallelogram;perimeter=parallelogramPerimeter;whiteSpace=wrap;html=1;fixedSize=1;" parent="1" vertex="1">
          <mxGeometry x="270" y="740" width="120" height="60" as="geometry" />
        </mxCell>
        <mxCell id="MbiJu6jHH6aQH0F2YAqs-6" style="edgeStyle=orthogonalEdgeStyle;rounded=0;orthogonalLoop=1;jettySize=auto;html=1;entryX=0.75;entryY=0;entryDx=0;entryDy=0;" edge="1" parent="1" source="MbiJu6jHH6aQH0F2YAqs-5" target="WompmNfc8i8KG4VRtd54-10">
          <mxGeometry relative="1" as="geometry" />
        </mxCell>
        <mxCell id="MbiJu6jHH6aQH0F2YAqs-5" value="Dim Mitarbeiter" style="shape=parallelogram;perimeter=parallelogramPerimeter;whiteSpace=wrap;html=1;fixedSize=1;" vertex="1" parent="1">
          <mxGeometry x="280" y="300" width="120" height="60" as="geometry" />
        </mxCell>
        <mxCell id="MbiJu6jHH6aQH0F2YAqs-8" style="edgeStyle=orthogonalEdgeStyle;rounded=0;orthogonalLoop=1;jettySize=auto;html=1;entryX=0.5;entryY=1;entryDx=0;entryDy=0;" edge="1" parent="1" source="MbiJu6jHH6aQH0F2YAqs-7" target="WompmNfc8i8KG4VRtd54-10">
          <mxGeometry relative="1" as="geometry" />
        </mxCell>
        <mxCell id="MbiJu6jHH6aQH0F2YAqs-7" value="Hilfstabelle" style="shape=parallelogram;perimeter=parallelogramPerimeter;whiteSpace=wrap;html=1;fixedSize=1;" vertex="1" parent="1">
          <mxGeometry x="260" y="940" width="120" height="60" as="geometry" />
        </mxCell>
      </root>
    </mxGraphModel>
  </diagram>
</mxfile>
